<mxfile host="app.diagrams.net" modified="2020-09-08T17:24:09.077Z" agent="5.0 (Macintosh; Intel Mac OS X 10_12_6) AppleWebKit/605.1.15 (KHTML, like Gecko) Version/12.1.2 Safari/605.1.15" etag="fINlfchNobpLPStKaxOZ" version="13.6.9" type="github">
  <diagram id="kgpKYQtTHZ0yAKxKKP6v" name="Page-1">
    <mxGraphModel dx="786" dy="471" grid="1" gridSize="10" guides="1" tooltips="1" connect="1" arrows="1" fold="1" page="1" pageScale="1" pageWidth="850" pageHeight="1100" math="0" shadow="0">
      <root>
        <mxCell id="0" />
        <mxCell id="1" parent="0" />
        <mxCell id="3nuBFxr9cyL0pnOWT2aG-1" value="user-service" style="shape=umlLifeline;perimeter=lifelinePerimeter;container=1;collapsible=0;recursiveResize=0;rounded=0;shadow=0;strokeWidth=1;fillColor=#d5e8d4;strokeColor=#82b366;" parent="1" vertex="1">
          <mxGeometry x="120" y="80" width="100" height="350" as="geometry" />
        </mxCell>
        <mxCell id="3nuBFxr9cyL0pnOWT2aG-2" value="" style="points=[];perimeter=orthogonalPerimeter;rounded=0;shadow=0;strokeWidth=1;" parent="3nuBFxr9cyL0pnOWT2aG-1" vertex="1">
          <mxGeometry x="45" y="70" width="10" height="60" as="geometry" />
        </mxCell>
        <mxCell id="sQHD7JHmYoL_hReAdypG-44" value="add money" style="text;html=1;strokeColor=#d6b656;fillColor=#fff2cc;align=center;verticalAlign=middle;whiteSpace=wrap;rounded=0;" vertex="1" parent="3nuBFxr9cyL0pnOWT2aG-1">
          <mxGeometry x="17.5" y="180" width="65" height="20" as="geometry" />
        </mxCell>
        <mxCell id="3nuBFxr9cyL0pnOWT2aG-5" value="billing-service" style="shape=umlLifeline;perimeter=lifelinePerimeter;container=1;collapsible=0;recursiveResize=0;rounded=0;shadow=0;strokeWidth=1;fillColor=#d5e8d4;strokeColor=#82b366;" parent="1" vertex="1">
          <mxGeometry x="240" y="80" width="100" height="350" as="geometry" />
        </mxCell>
        <mxCell id="3nuBFxr9cyL0pnOWT2aG-6" value="" style="points=[];perimeter=orthogonalPerimeter;rounded=0;shadow=0;strokeWidth=1;" parent="3nuBFxr9cyL0pnOWT2aG-5" vertex="1">
          <mxGeometry x="45" y="70" width="10" height="40" as="geometry" />
        </mxCell>
        <mxCell id="sQHD7JHmYoL_hReAdypG-18" value="" style="points=[];perimeter=orthogonalPerimeter;rounded=0;shadow=0;strokeWidth=1;" vertex="1" parent="3nuBFxr9cyL0pnOWT2aG-5">
          <mxGeometry x="45" y="180" width="10" height="40" as="geometry" />
        </mxCell>
        <mxCell id="3nuBFxr9cyL0pnOWT2aG-7" value="200 OK" style="verticalAlign=bottom;endArrow=open;dashed=1;endSize=8;exitX=0;exitY=0.95;shadow=0;strokeWidth=1;" parent="1" source="3nuBFxr9cyL0pnOWT2aG-6" target="3nuBFxr9cyL0pnOWT2aG-2" edge="1">
          <mxGeometry relative="1" as="geometry">
            <mxPoint x="275" y="236" as="targetPoint" />
          </mxGeometry>
        </mxCell>
        <mxCell id="3nuBFxr9cyL0pnOWT2aG-8" value="POST /billing/account" style="verticalAlign=bottom;endArrow=block;entryX=0;entryY=0;shadow=0;strokeWidth=1;" parent="1" source="3nuBFxr9cyL0pnOWT2aG-2" target="3nuBFxr9cyL0pnOWT2aG-6" edge="1">
          <mxGeometry relative="1" as="geometry">
            <mxPoint x="275" y="160" as="sourcePoint" />
          </mxGeometry>
        </mxCell>
        <mxCell id="sQHD7JHmYoL_hReAdypG-2" value="notification-serviceÂ &#xa;(consumer)" style="shape=umlLifeline;perimeter=lifelinePerimeter;container=1;collapsible=0;recursiveResize=0;rounded=0;shadow=0;strokeWidth=1;fillColor=#d5e8d4;strokeColor=#82b366;" vertex="1" parent="1">
          <mxGeometry x="690" y="80" width="120" height="460" as="geometry" />
        </mxCell>
        <mxCell id="sQHD7JHmYoL_hReAdypG-41" value="send&#xa;email" style="points=[];perimeter=orthogonalPerimeter;rounded=0;shadow=0;strokeWidth=1;" vertex="1" parent="sQHD7JHmYoL_hReAdypG-2">
          <mxGeometry x="37.5" y="390" width="45" height="70" as="geometry" />
        </mxCell>
        <mxCell id="sQHD7JHmYoL_hReAdypG-4" value="order-service &#xa;(producer)" style="shape=umlLifeline;perimeter=lifelinePerimeter;container=1;collapsible=0;recursiveResize=0;rounded=0;shadow=0;strokeWidth=1;fillColor=#d5e8d4;strokeColor=#82b366;" vertex="1" parent="1">
          <mxGeometry x="420" y="80" width="100" height="350" as="geometry" />
        </mxCell>
        <mxCell id="sQHD7JHmYoL_hReAdypG-5" value="" style="points=[];perimeter=orthogonalPerimeter;rounded=0;shadow=0;strokeWidth=1;" vertex="1" parent="sQHD7JHmYoL_hReAdypG-4">
          <mxGeometry x="45" y="250" width="10" height="70" as="geometry" />
        </mxCell>
        <mxCell id="sQHD7JHmYoL_hReAdypG-9" value="user" style="shape=umlLifeline;perimeter=lifelinePerimeter;container=1;collapsible=0;recursiveResize=0;rounded=0;shadow=0;strokeWidth=1;fillColor=#d5e8d4;strokeColor=#82b366;" vertex="1" parent="1">
          <mxGeometry x="20" y="80" width="90" height="340" as="geometry" />
        </mxCell>
        <mxCell id="sQHD7JHmYoL_hReAdypG-11" value="" style="endArrow=classic;html=1;exitX=0.511;exitY=0.203;exitDx=0;exitDy=0;exitPerimeter=0;entryX=0.6;entryY=-0.011;entryDx=0;entryDy=0;entryPerimeter=0;" edge="1" parent="1" source="sQHD7JHmYoL_hReAdypG-9" target="3nuBFxr9cyL0pnOWT2aG-2">
          <mxGeometry width="50" height="50" relative="1" as="geometry">
            <mxPoint x="140" y="270" as="sourcePoint" />
            <mxPoint x="140" y="220" as="targetPoint" />
            <Array as="points" />
          </mxGeometry>
        </mxCell>
        <mxCell id="sQHD7JHmYoL_hReAdypG-12" value="POST /user/" style="text;html=1;align=center;verticalAlign=middle;resizable=0;points=[];autosize=1;" vertex="1" parent="1">
          <mxGeometry x="70" y="130" width="80" height="20" as="geometry" />
        </mxCell>
        <mxCell id="sQHD7JHmYoL_hReAdypG-13" value="200 OK" style="verticalAlign=bottom;endArrow=open;dashed=1;endSize=8;exitX=0;exitY=0.95;shadow=0;strokeWidth=1;" edge="1" parent="1">
          <mxGeometry relative="1" as="geometry">
            <mxPoint x="57.5" y="210" as="targetPoint" />
            <mxPoint x="162.5" y="210" as="sourcePoint" />
          </mxGeometry>
        </mxCell>
        <mxCell id="sQHD7JHmYoL_hReAdypG-17" value="" style="endArrow=classic;html=1;exitX=0.51;exitY=0.227;exitDx=0;exitDy=0;exitPerimeter=0;" edge="1" parent="1" target="3nuBFxr9cyL0pnOWT2aG-5">
          <mxGeometry width="50" height="50" relative="1" as="geometry">
            <mxPoint x="60" y="260" as="sourcePoint" />
            <mxPoint x="170" y="261.24" as="targetPoint" />
            <Array as="points" />
          </mxGeometry>
        </mxCell>
        <mxCell id="sQHD7JHmYoL_hReAdypG-19" value="PUT /billing/balance/add" style="text;html=1;align=center;verticalAlign=middle;resizable=0;points=[];autosize=1;" vertex="1" parent="1">
          <mxGeometry x="85" y="240" width="150" height="20" as="geometry" />
        </mxCell>
        <mxCell id="sQHD7JHmYoL_hReAdypG-20" value="200 OK" style="verticalAlign=bottom;endArrow=open;dashed=1;endSize=8;exitX=0;exitY=0.95;shadow=0;strokeWidth=1;" edge="1" parent="1" target="sQHD7JHmYoL_hReAdypG-9">
          <mxGeometry relative="1" as="geometry">
            <mxPoint x="180" y="300" as="targetPoint" />
            <mxPoint x="290" y="300" as="sourcePoint" />
          </mxGeometry>
        </mxCell>
        <mxCell id="sQHD7JHmYoL_hReAdypG-22" value="POST /order/create" style="text;html=1;align=center;verticalAlign=middle;resizable=0;points=[];autosize=1;" vertex="1" parent="1">
          <mxGeometry x="180" y="310" width="120" height="20" as="geometry" />
        </mxCell>
        <mxCell id="sQHD7JHmYoL_hReAdypG-23" value="" style="endArrow=classic;html=1;" edge="1" parent="1" source="sQHD7JHmYoL_hReAdypG-4" target="3nuBFxr9cyL0pnOWT2aG-5">
          <mxGeometry width="50" height="50" relative="1" as="geometry">
            <mxPoint x="440" y="350" as="sourcePoint" />
            <mxPoint x="420" y="220" as="targetPoint" />
            <Array as="points">
              <mxPoint x="430" y="350" />
            </Array>
          </mxGeometry>
        </mxCell>
        <mxCell id="sQHD7JHmYoL_hReAdypG-25" value="200 OK" style="verticalAlign=bottom;endArrow=open;dashed=1;endSize=8;exitX=0.51;exitY=0.823;shadow=0;strokeWidth=1;exitDx=0;exitDy=0;exitPerimeter=0;" edge="1" parent="1" source="3nuBFxr9cyL0pnOWT2aG-5" target="sQHD7JHmYoL_hReAdypG-4">
          <mxGeometry relative="1" as="geometry">
            <mxPoint x="440" y="368" as="targetPoint" />
            <mxPoint x="295" y="370" as="sourcePoint" />
          </mxGeometry>
        </mxCell>
        <mxCell id="sQHD7JHmYoL_hReAdypG-26" value="200 OK" style="verticalAlign=bottom;endArrow=open;dashed=1;endSize=8;exitX=0.5;exitY=0.931;shadow=0;strokeWidth=1;exitDx=0;exitDy=0;exitPerimeter=0;" edge="1" parent="1" source="sQHD7JHmYoL_hReAdypG-4">
          <mxGeometry relative="1" as="geometry">
            <mxPoint x="60" y="406" as="targetPoint" />
            <mxPoint x="450.5" y="380" as="sourcePoint" />
          </mxGeometry>
        </mxCell>
        <mxCell id="sQHD7JHmYoL_hReAdypG-24" value="PUT /billing/balance/withdraw" style="text;html=1;align=center;verticalAlign=middle;resizable=0;points=[];autosize=1;" vertex="1" parent="1">
          <mxGeometry x="290" y="330" width="170" height="20" as="geometry" />
        </mxCell>
        <mxCell id="sQHD7JHmYoL_hReAdypG-27" value="" style="endArrow=classic;html=1;exitX=0.522;exitY=0.724;exitDx=0;exitDy=0;exitPerimeter=0;" edge="1" parent="1" source="sQHD7JHmYoL_hReAdypG-9" target="sQHD7JHmYoL_hReAdypG-4">
          <mxGeometry width="50" height="50" relative="1" as="geometry">
            <mxPoint x="66.98000000000002" y="326.15999999999997" as="sourcePoint" />
            <mxPoint x="471" y="324.4" as="targetPoint" />
            <Array as="points" />
          </mxGeometry>
        </mxCell>
        <mxCell id="sQHD7JHmYoL_hReAdypG-28" value="" style="endArrow=classic;html=1;exitX=0.522;exitY=0.724;exitDx=0;exitDy=0;exitPerimeter=0;" edge="1" parent="1">
          <mxGeometry width="50" height="50" relative="1" as="geometry">
            <mxPoint x="470" y="410" as="sourcePoint" />
            <mxPoint x="600" y="410" as="targetPoint" />
            <Array as="points">
              <mxPoint x="530" y="410" />
            </Array>
          </mxGeometry>
        </mxCell>
        <mxCell id="sQHD7JHmYoL_hReAdypG-34" value="publish" style="text;html=1;align=center;verticalAlign=middle;resizable=0;points=[];autosize=1;" vertex="1" parent="1">
          <mxGeometry x="515" y="390" width="50" height="20" as="geometry" />
        </mxCell>
        <mxCell id="sQHD7JHmYoL_hReAdypG-35" value="message broker" style="shape=umlLifeline;perimeter=lifelinePerimeter;container=1;collapsible=0;recursiveResize=0;rounded=0;shadow=0;strokeWidth=1;fillColor=#d5e8d4;strokeColor=#82b366;" vertex="1" parent="1">
          <mxGeometry x="540" y="80" width="120" height="420" as="geometry" />
        </mxCell>
        <mxCell id="sQHD7JHmYoL_hReAdypG-37" value="consume" style="verticalAlign=bottom;endArrow=open;dashed=1;endSize=8;exitX=0.51;exitY=0.823;shadow=0;strokeWidth=1;exitDx=0;exitDy=0;exitPerimeter=0;" edge="1" parent="1">
          <mxGeometry relative="1" as="geometry">
            <mxPoint x="750" y="470" as="targetPoint" />
            <mxPoint x="605" y="469.99999999999994" as="sourcePoint" />
          </mxGeometry>
        </mxCell>
        <mxCell id="sQHD7JHmYoL_hReAdypG-39" value="" style="points=[];perimeter=orthogonalPerimeter;rounded=0;shadow=0;strokeWidth=1;" vertex="1" parent="1">
          <mxGeometry x="595" y="410" width="10" height="70" as="geometry" />
        </mxCell>
        <mxCell id="sQHD7JHmYoL_hReAdypG-43" value="create user" style="text;html=1;strokeColor=#d6b656;fillColor=#fff2cc;align=center;verticalAlign=middle;whiteSpace=wrap;rounded=0;" vertex="1" parent="1">
          <mxGeometry x="85" y="160" width="65" height="20" as="geometry" />
        </mxCell>
        <mxCell id="sQHD7JHmYoL_hReAdypG-45" value="create order" style="text;html=1;strokeColor=#d6b656;fillColor=#fff2cc;align=center;verticalAlign=middle;whiteSpace=wrap;rounded=0;" vertex="1" parent="1">
          <mxGeometry x="180" y="330" width="85" height="20" as="geometry" />
        </mxCell>
        <mxCell id="sQHD7JHmYoL_hReAdypG-46" value="withdraw money" style="text;html=1;strokeColor=#d6b656;fillColor=#fff2cc;align=center;verticalAlign=middle;whiteSpace=wrap;rounded=0;" vertex="1" parent="1">
          <mxGeometry x="340" y="370" width="100" height="20" as="geometry" />
        </mxCell>
        <mxCell id="sQHD7JHmYoL_hReAdypG-47" value="produce message" style="text;html=1;strokeColor=#d6b656;fillColor=#fff2cc;align=center;verticalAlign=middle;whiteSpace=wrap;rounded=0;" vertex="1" parent="1">
          <mxGeometry x="480" y="420" width="100" height="20" as="geometry" />
        </mxCell>
        <mxCell id="sQHD7JHmYoL_hReAdypG-48" value="consume message&amp;nbsp;" style="text;html=1;strokeColor=#d6b656;fillColor=#fff2cc;align=center;verticalAlign=middle;whiteSpace=wrap;rounded=0;" vertex="1" parent="1">
          <mxGeometry x="690" y="430" width="130" height="20" as="geometry" />
        </mxCell>
      </root>
    </mxGraphModel>
  </diagram>
</mxfile>
